<?xml version="1.0" standalone="no"?>
<!DOCTYPE svg PUBLIC "-//W3C//DTD SVG 20010904//EN"
 "http://www.w3.org/TR/2001/REC-SVG-20010904/DTD/svg10.dtd">
<svg version="1.0" xmlns="http://www.w3.org/2000/svg"
 width="956.000000pt" height="956.000000pt" viewBox="0 0 956.000000 956.000000"
 preserveAspectRatio="xMidYMid meet">
<metadata>
Created by potrace 1.11, written by Peter Selinger 2001-2013
</metadata>
<g transform="translate(0.000000,956.000000) scale(0.100000,-0.100000)"
fill="#000000" stroke="none">
<path d="M2039 9555 c-2 -2 -33 -6 -69 -9 -91 -8 -131 -15 -240 -37 -110 -22
-312 -87 -322 -103 -4 -6 -8 -7 -8 -2 0 4 -11 1 -25 -8 -13 -9 -28 -16 -33
-16 -18 0 -178 -93 -247 -144 -382 -280 -560 -655 -557 -1176 0 -58 3 -127 7
-155 3 -27 8 -66 10 -85 10 -77 36 -192 47 -204 4 -6 8 -19 8 -30 0 -43 99
-238 165 -325 60 -79 140 -158 220 -217 33 -24 65 -48 70 -52 26 -21 160 -95
227 -125 77 -35 222 -88 298 -108 25 -7 50 -14 55 -15 28 -8 195 -43 230 -48
22 -3 51 -8 65 -11 14 -3 39 -7 55 -9 17 -2 57 -9 90 -15 33 -6 76 -13 95 -15
19 -3 35 -5 35 -6 0 -1 11 -3 25 -5 14 -1 39 -5 55 -9 17 -3 53 -9 80 -12 28
-4 54 -9 58 -11 5 -3 23 -7 40 -9 18 -1 66 -10 107 -19 41 -9 83 -18 93 -20
56 -12 223 -69 229 -79 4 -6 8 -7 8 -3 0 4 10 2 23 -5 12 -7 24 -13 27 -13 22
-4 176 -97 224 -135 32 -26 75 -70 110 -113 34 -42 96 -146 100 -169 2 -7 9
-26 15 -43 7 -16 15 -41 17 -55 3 -14 7 -33 10 -42 23 -78 34 -288 20 -418 -2
-25 -5 -51 -5 -58 -1 -10 -13 -11 -48 -6 -102 15 -570 7 -663 -11 -14 -3 -45
-8 -70 -11 -25 -3 -53 -8 -62 -10 -10 -3 -30 -8 -45 -11 -43 -8 -44 -8 -108
-27 -33 -10 -67 -20 -75 -21 -28 -7 -171 -65 -229 -94 -204 -101 -387 -243
-516 -401 l-57 -70 -52 27 c-48 26 -125 74 -154 98 -39 31 -132 125 -157 160
-17 22 -32 42 -35 45 -19 19 -109 201 -110 222 0 9 -4 19 -9 22 -4 3 -12 20
-16 38 -9 37 -12 47 -15 51 -1 1 -3 11 -5 22 -2 11 -8 45 -15 75 -6 30 -13 71
-16 90 -11 84 23 75 -288 78 l-277 2 6 -47 c3 -27 7 -59 10 -73 3 -14 7 -41
10 -60 8 -64 16 -104 32 -165 8 -33 17 -71 20 -84 2 -14 7 -29 11 -35 3 -6 7
-15 8 -21 4 -26 71 -188 104 -250 54 -104 61 -116 98 -160 7 -8 9 -15 5 -15
-4 0 -3 -4 2 -8 6 -4 28 -29 49 -57 66 -84 248 -255 270 -255 4 0 15 -8 26
-17 10 -10 36 -27 57 -38 21 -11 40 -23 43 -26 3 -4 41 -23 85 -44 44 -21 82
-39 84 -41 1 -1 -4 -24 -13 -51 -8 -26 -17 -61 -20 -76 -3 -16 -10 -34 -15
-41 -6 -7 -9 -15 -6 -18 3 -3 -1 -36 -9 -74 -8 -38 -18 -94 -21 -124 -4 -30
-9 -66 -11 -80 -2 -14 -7 -56 -11 -95 -10 -91 -10 -1940 0 -2025 4 -36 9 -85
12 -109 5 -46 13 -106 21 -156 13 -77 67 -299 84 -340 13 -33 23 -59 25 -70 2
-6 26 -60 55 -120 29 -61 53 -113 52 -116 -1 -4 8 -15 18 -24 11 -10 20 -23
20 -29 0 -7 13 -27 30 -46 16 -19 29 -38 30 -42 1 -24 194 -219 280 -284 36
-27 66 -52 68 -56 2 -5 8 -8 13 -8 5 0 32 -15 61 -34 49 -30 156 -89 168 -91
3 0 15 -6 27 -13 28 -16 211 -82 243 -88 14 -3 59 -14 100 -24 41 -10 94 -21
117 -25 23 -3 57 -8 75 -11 174 -26 594 -25 723 1 11 3 36 7 55 10 19 2 46 7
60 10 14 3 41 8 60 12 45 9 38 8 87 21 147 43 335 118 382 154 13 10 28 18 33
18 14 0 175 113 223 155 67 60 139 131 164 161 58 71 129 173 151 217 14 26
28 47 32 47 5 0 8 5 8 11 0 5 11 35 25 65 14 30 25 56 25 59 0 2 5 16 12 32
13 33 12 28 38 123 24 86 25 89 35 150 22 132 27 179 30 283 l2 97 -272 0
-273 0 -2 -62 c-12 -442 -204 -757 -573 -939 -54 -26 -100 -48 -102 -48 -3 0
-42 -11 -88 -25 -45 -13 -98 -27 -117 -30 -19 -3 -46 -8 -60 -11 -92 -18 -374
-24 -500 -11 -106 11 -219 34 -316 65 -93 30 -236 96 -242 112 -2 5 -8 9 -14
9 -14 0 -136 97 -175 140 -56 61 -83 94 -110 135 -14 22 -34 51 -43 65 -20 30
-90 178 -90 191 0 5 -4 17 -9 27 -10 19 -46 141 -55 187 -4 17 -9 41 -12 55
-3 14 -7 35 -10 48 -2 12 -6 40 -7 62 -1 22 -4 40 -7 40 -12 0 -15 209 -15
1045 0 770 4 982 20 1065 2 9 6 41 10 70 4 29 8 60 10 69 27 133 38 178 43
186 4 5 7 12 7 15 1 3 4 15 9 28 7 22 10 22 99 16 150 -11 462 -5 542 10 11 2
47 6 80 10 33 4 96 14 140 23 97 19 96 19 115 26 16 6 68 18 72 16 2 0 47 16
102 35 127 47 266 114 351 171 37 25 71 45 76 45 4 0 12 6 16 13 4 6 31 30 58
52 58 45 155 145 188 192 12 18 27 33 32 33 19 0 158 -90 221 -143 63 -54 163
-169 192 -222 10 -16 20 -32 23 -35 18 -17 74 -157 96 -239 27 -107 32 -139
38 -260 3 -46 7 -87 11 -90 3 -3 127 -6 276 -6 231 0 271 2 278 15 8 16 6 99
-5 195 -4 33 -8 74 -10 90 -5 59 -55 246 -90 336 -37 96 -104 232 -117 237 -5
2 -8 9 -8 16 0 21 -139 195 -220 275 -102 100 -238 197 -367 262 -57 29 -103
57 -103 63 0 6 5 38 10 71 30 180 32 440 5 605 -10 58 -39 187 -47 210 -3 8
-14 38 -23 65 -29 84 -110 236 -150 281 -5 6 -26 30 -45 54 -149 180 -385 331
-678 433 -56 20 -104 37 -107 37 -3 0 -10 2 -17 4 -22 6 -152 37 -168 40 -50
9 -89 17 -115 21 -16 3 -41 8 -55 11 -14 3 -34 6 -45 8 -40 8 -91 16 -115 20
-37 6 -90 15 -235 41 -44 7 -96 16 -115 19 -70 11 -116 21 -180 37 -25 6 -56
13 -70 15 -39 8 -174 55 -187 66 -7 6 -13 7 -13 4 0 -4 -10 0 -22 8 -12 9 -30
16 -40 16 -10 0 -18 5 -18 12 0 6 -3 9 -6 5 -4 -3 -31 9 -60 28 -30 19 -59 35
-64 35 -6 0 -10 3 -10 8 -1 4 -24 25 -53 46 -29 22 -73 64 -98 95 -44 54 -125
191 -113 191 4 0 2 6 -3 13 -14 16 -42 129 -51 202 -15 117 -5 306 23 405 8
30 17 63 20 74 9 37 63 143 100 197 78 111 184 205 315 279 41 23 75 41 75 40
0 -2 32 9 70 23 17 7 33 12 38 13 4 1 10 3 15 4 4 2 12 4 17 5 6 1 17 5 25 8
8 3 51 13 94 22 272 54 655 33 866 -47 82 -31 200 -90 200 -100 0 -5 5 -6 10
-3 6 3 10 2 10 -3 0 -5 17 -21 38 -35 44 -30 122 -104 122 -117 0 -4 3 -10 8
-12 34 -15 137 -197 172 -305 37 -115 63 -239 64 -310 0 -28 4 -28 306 -28
l245 1 -1 39 c-2 48 -9 96 -30 190 -9 39 -18 81 -20 94 -3 13 -9 32 -15 43 -5
10 -7 18 -5 18 3 0 1 12 -5 28 -6 15 -12 34 -14 42 -3 8 -10 31 -18 50 -8 19
-20 51 -27 70 -20 51 -97 197 -133 250 -137 202 -334 368 -563 476 -65 30
-173 74 -199 80 -20 5 -51 14 -110 30 -73 20 -82 22 -170 35 -38 6 -81 13 -95
16 -28 5 -476 14 -481 8z m1141 -4641 c0 -7 -114 -86 -163 -112 -61 -33 -172
-80 -206 -87 -11 -2 -29 -9 -40 -15 -12 -6 -21 -9 -21 -6 0 3 -15 0 -32 -5
-18 -5 -46 -12 -63 -14 -16 -3 -41 -7 -55 -10 -66 -12 -99 -16 -188 -21 -179
-10 -192 -10 -192 1 0 23 205 146 304 182 45 17 166 51 206 58 14 3 35 7 47
10 13 3 49 8 80 11 32 4 59 7 60 8 3 3 263 3 263 0z"/>
<path d="M4985 6843 l0 -2648 270 -1 c149 -1 275 2 280 5 7 4 11 376 10 1161
l0 1155 38 2 c20 0 44 4 52 7 8 3 15 1 15 -4 0 -5 13 -5 30 0 17 5 30 5 30 0
0 -4 15 -5 33 -1 17 4 46 4 62 1 17 -3 42 -3 58 1 16 5 27 4 27 -2 0 -6 6 -6
18 0 11 6 24 6 34 0 9 -5 19 -5 22 -1 5 8 75 7 83 -2 3 -3 15 -1 27 3 11 4 35
5 51 1 17 -3 42 -3 58 1 16 5 27 4 27 -2 0 -6 6 -6 18 0 11 6 24 6 34 0 9 -5
19 -6 22 -1 3 5 20 7 38 5 45 -5 110 -4 116 1 2 3 15 1 28 -4 13 -5 26 -6 29
0 3 5 18 5 33 1 15 -4 39 -4 55 0 15 4 27 3 27 -1 0 -5 14 -5 30 0 17 5 30 6
30 2 0 -4 18 -7 40 -7 22 0 40 2 40 5 0 3 11 5 25 5 14 0 25 -3 25 -7 0 -4 6
-5 13 -3 7 3 36 -44 75 -123 35 -70 90 -178 122 -239 32 -62 56 -113 52 -113
-4 0 -2 -4 4 -8 6 -4 29 -43 50 -87 21 -44 42 -84 47 -90 4 -5 37 -68 73 -140
36 -71 75 -148 87 -170 11 -22 20 -42 20 -45 -1 -3 8 -18 19 -33 11 -16 17
-31 14 -34 -3 -4 -331 -6 -729 -6 l-722 0 0 -2649 0 -2648 279 2 280 3 0 1210
1 1210 1135 0 1136 0 -1 247 c0 135 -3 250 -7 253 -4 4 -515 8 -1135 8 l-1129
-1 1 926 c0 916 0 925 20 932 11 4 27 4 36 -1 9 -5 19 -5 23 -2 9 9 56 10 56
1 0 -4 11 -4 23 1 13 5 29 6 36 1 7 -4 28 -4 47 0 20 5 34 4 34 -2 0 -5 7 -5
17 1 11 6 24 6 35 0 10 -5 18 -6 18 -2 0 9 92 8 115 -1 8 -3 15 -2 15 2 0 4
11 7 25 7 14 0 25 -3 25 -7 0 -4 10 -4 23 1 12 5 31 5 42 1 11 -4 30 -4 42 1
12 5 25 5 27 0 3 -4 26 -5 51 -1 25 4 45 3 45 -2 0 -5 8 -4 18 1 11 6 24 6 35
0 9 -6 17 -6 17 -2 0 7 75 9 105 3 6 -1 12 -1 15 0 12 5 60 5 60 0 0 -3 16 -5
35 -5 19 0 35 3 35 6 0 4 16 4 76 -3 6 -1 39 -58 75 -127 35 -69 67 -127 71
-129 5 -2 8 -11 8 -21 0 -9 4 -21 9 -26 4 -6 46 -84 92 -175 46 -91 88 -168
92 -171 5 -3 8 -9 8 -13 -1 -3 5 -19 13 -34 l15 -28 318 1 c175 1 319 3 321 4
3 1 -17 39 -153 296 -26 50 -74 142 -107 205 -34 63 -71 134 -84 158 -13 23
-24 47 -24 51 0 12 54 19 79 10 11 -5 23 -4 26 1 3 5 15 6 28 1 12 -5 34 -5
49 0 16 4 30 3 34 -2 3 -5 11 -6 17 -2 13 8 75 8 83 0 3 -2 21 -1 40 3 20 5
34 4 34 -1 0 -6 7 -6 18 0 11 6 24 6 35 0 9 -6 17 -6 17 -2 0 9 91 8 115 -1 8
-3 15 -2 15 2 0 4 11 7 25 7 14 0 25 -3 25 -7 0 -4 10 -4 23 1 12 5 31 5 42 1
11 -4 30 -4 42 1 12 5 24 5 27 1 3 -5 21 -6 40 -4 l36 4 0 253 0 252 -557 -1
c-432 -1 -559 2 -569 11 -7 7 -30 48 -51 90 -21 43 -41 80 -44 83 -3 3 -28 50
-56 105 -29 55 -67 129 -87 165 -19 36 -48 92 -65 125 -17 33 -55 105 -84 160
-132 248 -207 395 -207 403 0 4 24 14 53 21 63 16 197 62 252 86 22 10 45 19
50 20 6 1 33 16 60 32 28 16 57 32 65 36 70 34 171 116 278 224 56 57 102 107
102 112 0 4 11 21 25 37 14 16 25 33 25 38 0 5 6 17 14 25 30 33 129 253 141
311 2 8 8 35 15 60 7 25 14 56 16 70 2 14 6 34 9 45 20 91 27 427 12 565 -8
72 -42 233 -62 295 -96 293 -258 511 -498 671 -45 30 -86 58 -92 62 -37 27
-272 123 -335 136 -14 3 -52 12 -85 21 -33 8 -89 20 -125 26 -36 6 -81 13
-100 16 -19 3 -535 8 -1145 10 l-1110 4 0 -2648z m2020 2133 c72 -3 140 -8
151 -10 12 -2 39 -7 60 -10 95 -15 225 -58 304 -99 30 -16 65 -34 77 -41 13
-6 23 -14 23 -18 0 -5 4 -8 10 -8 26 0 159 -134 206 -207 39 -62 74 -132 74
-150 0 -7 5 -13 12 -13 6 0 9 -2 6 -5 -3 -3 3 -34 14 -68 10 -34 21 -77 24
-97 2 -19 7 -46 11 -60 8 -34 11 -370 3 -370 -3 0 -6 -10 -7 -22 -2 -50 -8
-78 -16 -78 -4 0 -5 -5 -2 -10 4 -6 1 -27 -6 -48 -7 -20 -14 -39 -14 -42 -4
-23 -33 -94 -58 -139 -79 -148 -206 -272 -356 -349 -68 -35 -221 -89 -276 -98
-22 -3 -60 -10 -85 -16 -57 -12 -365 -22 -620 -19 -8 0 -62 0 -120 0 -58 0
-109 0 -115 0 -13 0 -214 1 -240 0 -49 0 -231 0 -245 0 -8 0 -72 1 -142 1
-113 1 -128 3 -129 18 -1 9 -2 454 -3 987 -1 931 -1 970 17 975 24 7 1278 3
1442 -4z"/>
</g>
</svg>
